<svg width="128" height="25" viewBox="0 0 128 25" fill="none" xmlns="http://www.w3.org/2000/svg">
<path d="M5.2991 13.9656C5.2991 14.0862 5.2505 14.2792 5.17759 14.3274C3.86522 14.5686 3.35485 15.3887 3.35485 16.1847C3.35485 17.2942 4.4728 18.0902 5.61504 18.0902C6.0525 18.0902 6.53856 17.9696 7.00032 17.6802C8.28838 16.9083 8.50711 14.9304 8.65293 12.5425C8.67723 12.1807 8.67723 11.7706 8.67723 11.3364C8.67723 9.76861 8.58002 7.74248 8.58002 5.86107C8.58002 4.53444 8.62863 3.30429 8.79875 2.36358C8.79875 2.36358 7.14614 4.07614 6.48995 6.07815C6.29553 6.68117 6.22262 7.16358 6.22262 7.57363C6.22262 8.92438 7.09753 9.38268 7.48638 10.2993C7.55929 10.4922 7.6079 10.6852 7.6079 10.8782C7.6079 11.843 6.53856 12.4942 5.80947 12.9525C4.69152 12.3013 3.54928 11.0711 3.54928 8.99675C3.54928 8.49021 3.62219 7.91132 3.79231 7.28418C4.64292 3.97966 6.8302 1.49524 7.89953 0.675139C8.48281 0.240969 9.40633 0.0480042 10.2812 0.0480042C10.7187 0.0480042 12.4199 0.192727 12.4199 0.819863C12.4199 0.892224 12.3956 0.988707 12.347 1.06107C11.788 1.83293 11.6422 3.59373 11.6422 5.52338C11.6422 7.79072 11.8609 10.3475 11.8609 11.8189C11.8609 14.8098 11.3992 16.9807 9.1876 18.8138C8.21547 19.6098 6.58717 20.1405 4.98316 20.1405C3.57358 20.1405 2.18831 19.7304 1.28909 18.7656C0.778725 18.2108 0.559998 17.5354 0.559998 16.8601C0.559998 15.1234 2.04249 13.3385 3.93813 13.3385C4.69152 13.3385 5.2991 13.6279 5.2991 13.9656Z" fill="black"/>
<path d="M24.9848 14.7616C25.3736 14.7616 25.9569 15.1475 25.9569 15.8952C25.9569 16.0641 25.9326 16.2812 25.8597 16.4983C25.4709 17.7043 23.9398 19.1515 22.919 19.1515C22.2386 19.1515 20.513 18.9344 19.8325 16.8359C19.6381 16.2812 19.5895 15.5576 19.5895 14.8098C19.5895 14.255 19.6138 13.6761 19.6624 13.1214C19.7353 12.0842 19.8568 11.047 19.8568 10.3234C19.8568 9.67212 19.7596 9.26207 19.4923 9.26207C18.9333 9.26207 17.9126 11.7706 17.1106 14.2309C16.503 16.0882 16.0656 17.8972 16.0656 18.5967C16.0656 18.838 15.9197 18.9344 15.701 18.9344C15.4094 18.9344 15.0205 18.7656 14.6317 18.452C14.097 18.0179 13.611 17.2942 13.4894 16.3777C13.4651 16.1364 13.4408 15.847 13.4408 15.5093C13.4408 14.6651 13.5137 13.5555 13.611 12.4219C13.611 12.3254 13.6353 12.2289 13.6353 12.1324C13.7325 10.9264 13.8054 9.67212 13.8054 8.7073C13.8054 8.08016 13.7811 7.59775 13.6839 7.26006C13.8783 7.1877 14.0727 7.13946 14.2671 7.13946C15.0691 7.13946 15.944 7.74248 16.2843 8.5867C16.4301 8.94851 16.4787 9.5274 16.4787 10.1304C16.4787 11.2641 16.3329 12.2048 16.26 12.8078C16.6488 11.24 17.5724 8.22489 18.5688 7.47715C18.9576 7.1877 19.3951 7.0671 19.8325 7.0671C21.0477 7.0671 22.3358 7.98368 22.676 9.04499C22.7732 9.35856 22.7975 9.88921 22.7975 10.4922C22.7975 11.2882 22.7489 12.253 22.676 13.1937C22.676 13.3143 22.6517 13.4349 22.6517 13.5555C22.6031 14.3756 22.5302 15.1716 22.5302 15.7988C22.5302 16.4983 22.6031 17.0048 22.7975 17.1254C22.8947 17.1736 22.9919 17.2219 23.0892 17.2219C23.4537 17.2219 23.8669 16.8842 24.2314 16.4259C24.6203 15.9194 24.9362 15.2922 24.9848 14.7616Z" fill="black"/>
<path d="M30.617 7.13946C30.69 7.01886 30.8358 6.97062 31.0059 6.97062C31.2246 6.97062 31.492 7.04298 31.735 7.1877C32.0995 7.40479 32.4398 7.79072 32.4398 8.36961C32.4398 9.02087 32.0509 11.5294 31.5649 13.8209C31.0545 16.1364 30.4469 18.3797 29.9123 18.7897C29.5963 19.0309 29.1589 19.1515 28.7214 19.1515C28.4298 19.1515 28.1138 19.1033 27.7979 19.0068C27.0445 18.7897 26.3154 18.3314 25.9022 17.8008C25.3676 17.1254 25.0759 15.1957 24.8329 13.1696C24.5413 10.6369 24.3225 7.93544 23.8608 7.50127C24.0552 7.26006 24.4684 7.13946 24.9787 7.13946C25.2704 7.13946 25.5863 7.16358 25.8779 7.26006C26.607 7.47715 27.3118 7.93544 27.5549 8.63494C27.7736 9.2862 27.8708 10.8782 27.968 12.4701C28.0895 14.2792 28.2596 16.7153 28.6728 16.7153C28.9887 16.7153 29.4262 14.8581 29.815 12.7596C30.2525 10.3957 30.617 7.74248 30.617 7.13946Z" fill="black"/>
<path d="M39.7003 11.843C38.6796 12.6631 37.3429 12.9766 36.1035 13.0249C36.1278 14.3515 36.4437 15.6299 37.1242 16.3777C37.6103 16.9083 38.1935 17.1495 38.7768 17.1495C39.433 17.1495 40.1135 16.8601 40.6968 16.3535C41.4745 15.7023 42.0577 14.6892 42.2035 13.6038C42.2522 13.6038 42.3008 13.5797 42.3494 13.5797C42.8597 13.5797 43.2729 14.1344 43.2729 14.8339C43.2729 16.4983 41.596 18.1867 39.8948 18.7897C39.4087 18.9586 38.7768 19.0792 38.1206 19.0792C36.7353 19.0792 35.1556 18.5967 34.062 17.2219C33.2114 16.1606 32.7982 14.5445 32.7982 12.9043C32.7982 11.24 33.2114 9.5274 34.062 8.29725C34.9612 6.99474 36.225 6.4882 37.4401 6.4882C38.8983 6.4882 40.2836 7.23594 40.7454 8.22489C40.9398 8.65906 41.037 9.06911 41.037 9.43092C41.037 10.5405 40.2836 11.3847 39.7003 11.843ZM37.8776 8.08016C37.3672 8.15253 36.9541 8.68318 36.6624 9.43092C36.4437 10.0098 36.2736 10.7093 36.1764 11.4812C36.6381 11.3606 37.0513 11.1917 37.586 10.854C38.1692 10.4681 38.5581 9.79273 38.5581 9.02087C38.5581 8.49021 38.2664 8.08016 37.8776 8.08016Z" fill="black"/>
<path d="M53.465 14.7616C53.8538 14.7616 54.4371 15.1475 54.4371 15.8952C54.4371 16.0641 54.4128 16.2812 54.3399 16.4983C53.9511 17.7043 52.42 19.1515 51.3992 19.1515C50.7187 19.1515 48.9932 18.9344 48.3127 16.8359C48.1183 16.2812 48.0697 15.5576 48.0697 14.8098C48.0697 14.255 48.094 13.6761 48.1426 13.1214C48.2155 12.0842 48.337 11.047 48.337 10.3234C48.337 9.67212 48.2398 9.26207 47.9725 9.26207C47.4135 9.26207 46.3928 11.7706 45.5908 14.2309C44.9832 16.0882 44.5458 17.8972 44.5458 18.5967C44.5458 18.838 44.3999 18.9344 44.1812 18.9344C43.8896 18.9344 43.5007 18.7656 43.1119 18.452C42.5772 18.0179 42.0911 17.2942 41.9696 16.3777C41.9453 16.1364 41.921 15.847 41.921 15.5093C41.921 14.6651 41.9939 13.5555 42.0911 12.4219C42.0911 12.3254 42.1154 12.2289 42.1154 12.1324C42.2127 10.9264 42.2856 9.67212 42.2856 8.7073C42.2856 8.08016 42.2613 7.59775 42.164 7.26006C42.3585 7.1877 42.5529 7.13946 42.7473 7.13946C43.5493 7.13946 44.4242 7.74248 44.7645 8.5867C44.9103 8.94851 44.9589 9.5274 44.9589 10.1304C44.9589 11.2641 44.8131 12.2048 44.7402 12.8078C45.129 11.24 46.0525 8.22489 47.049 7.47715C47.4378 7.1877 47.8753 7.0671 48.3127 7.0671C49.5279 7.0671 50.816 7.98368 51.1562 9.04499C51.2534 9.35856 51.2777 9.88921 51.2777 10.4922C51.2777 11.2882 51.2291 12.253 51.1562 13.1937C51.1562 13.3143 51.1319 13.4349 51.1319 13.5555C51.0833 14.3756 51.0104 15.1716 51.0104 15.7988C51.0104 16.4983 51.0833 17.0048 51.2777 17.1254C51.3749 17.1736 51.4721 17.2219 51.5694 17.2219C51.9339 17.2219 52.3471 16.8842 52.7116 16.4259C53.1004 15.9194 53.4164 15.2922 53.465 14.7616Z" fill="black"/>
<path d="M56.8127 19.1033C54.99 19.1033 54.1637 18.0179 53.7263 16.7395C53.5804 16.3294 53.5318 15.4852 53.5318 14.3274C53.5318 13.8691 53.5318 13.3867 53.5561 12.856C53.5804 11.5053 53.629 9.96157 53.7019 8.39373C52.8756 8.36961 52.2438 8.34549 52.2438 8.34549C52.2438 8.34549 52.1465 8.10428 52.0979 7.81484C52.0736 7.69423 52.0493 7.59775 52.0493 7.47715C52.0493 7.23594 52.1466 7.01886 52.3896 6.9465C52.6812 6.85001 53.1673 6.80177 53.7506 6.77765C53.7749 6.19876 53.7749 5.71635 53.7749 5.28217C53.7749 4.75152 53.7506 4.31735 53.7506 3.93142C53.7506 3.37665 53.7992 2.91836 54.0422 2.48419C54.1637 2.2671 54.431 2.1465 54.6984 2.1465C54.99 2.1465 55.306 2.2671 55.5976 2.46006C56.108 2.79775 56.5211 3.44901 56.8127 4.46207C56.8857 4.67916 56.91 5.13745 56.91 5.74047C56.91 6.05403 56.91 6.39172 56.8857 6.75353C57.8335 6.75353 58.6841 6.75353 59.0729 6.68117C59.1701 6.89826 59.2431 7.11534 59.2431 7.33243C59.2431 7.50127 59.1944 7.64599 59.0972 7.79072C58.9271 8.03192 58.5869 8.22489 58.0279 8.29725C57.6877 8.34549 57.2502 8.39373 56.7641 8.39373C56.7641 8.77966 56.6426 9.23795 56.594 9.648C56.4239 11.1435 56.2538 12.7837 56.2538 14.3033C56.2538 15.847 56.4239 16.8842 56.7884 17.1495C56.9586 17.2701 57.1287 17.3184 57.3231 17.3184C57.7606 17.3184 58.2466 17.0289 58.6355 16.5465C59.0486 16.04 59.3646 15.3646 59.4375 14.6892C59.8263 14.6892 60.4096 15.0993 60.4096 15.8952C60.4096 16.1123 60.361 16.3777 60.2638 16.6671C59.6319 18.2832 58.2952 19.1033 56.8127 19.1033Z" fill="black"/>
<path d="M71.0861 12.9525C70.4785 13.7726 69.3119 14.255 68.0239 14.448C67.8051 16.2812 67.149 17.9455 65.9824 18.645C65.4964 18.9344 64.8159 19.0792 64.1111 19.0792C62.58 19.0792 60.8302 18.4038 59.9796 16.8842C59.3234 15.6782 59.0074 14.2068 59.0074 12.7596C59.0074 11.2882 59.3477 8.65906 60.9274 7.50127C61.3891 7.16358 61.8266 6.97062 62.2397 6.89825C62.6529 6.72941 63.1146 6.65705 63.5764 6.65705C64.1111 6.65705 64.6457 6.75353 65.1561 6.92238C66.3713 7.33243 67.1976 8.24901 67.5864 9.45504C67.8538 10.251 68.0482 11.24 68.0968 12.2771C68.7287 12.1324 69.3362 11.9153 69.798 11.5535C70.2112 11.2158 70.5271 10.7817 70.6729 10.251C71.0132 10.4199 71.5964 10.8782 71.5964 11.6259C71.5964 11.9877 71.4506 12.446 71.0861 12.9525ZM63.9653 11.7706C64.3055 12.0842 64.9374 12.3013 65.7151 12.3978C65.7151 12.2289 65.7394 12.0842 65.7394 11.9153C65.7394 11.2641 65.6422 10.6369 65.4721 10.1304C65.2533 9.5274 64.6457 8.68318 63.868 8.68318C63.7465 8.68318 63.6493 8.68318 63.5278 8.73142C63.139 8.90026 62.9445 9.38268 62.9445 9.81685C62.9445 10.444 63.382 11.2641 63.9653 11.7706ZM65.3991 14.448C64.8402 14.3756 64.3055 14.2309 63.7951 14.0621C63.2605 13.8691 62.7744 13.6279 62.3856 13.3385C62.4099 14.2792 62.5314 15.1234 62.7501 15.7988C63.0174 16.6671 63.4063 17.1978 63.8437 17.1978C64.67 17.1978 65.229 15.1716 65.3991 14.448Z" fill="black"/>
<path d="M73.8247 7.09122C73.9948 6.97062 74.1893 6.89825 74.408 6.89825C75.2343 6.89825 76.3279 7.7666 76.3279 8.77966C76.3279 9.5274 75.4287 10.5646 75.4287 10.5646C75.4287 10.5646 75.769 11.5535 76.7654 11.7465C76.8383 11.7706 76.8869 11.7706 76.9598 11.7706C77.6889 11.7706 78.3694 11.0711 78.4909 10.3716C79.0013 10.3716 79.4387 10.854 79.4387 11.5777C79.4387 12.9043 78.1021 13.652 76.7654 13.652C75.6231 13.652 74.5538 13.1455 73.8733 12.3495C73.3387 12.6148 72.7554 13.5797 72.5124 15.0269C72.4637 15.2681 72.4638 15.4852 72.4638 15.7264C72.4638 16.7153 72.488 17.7043 72.6582 18.7415C72.4394 18.8862 72.1478 18.9586 71.8805 18.9586C71.1271 18.9586 70.3251 18.4279 69.9848 17.6078C69.6689 16.8359 69.596 15.1234 69.596 13.3143C69.596 10.8058 69.6689 9.4068 69.6689 8.46609C69.6689 7.79072 69.6446 7.35655 69.5717 7.28418C69.6932 7.16358 69.9362 7.09122 70.2279 7.09122C70.4952 7.09122 70.8111 7.16358 71.1271 7.3083C71.6374 7.57363 72.1235 8.05604 72.3665 8.92438C72.4881 9.33444 72.5367 10.0339 72.561 10.854C72.7068 10.5646 72.8283 10.3234 72.9741 10.1063C72.9498 9.88921 72.9255 9.648 72.9255 9.43092C72.9255 8.34549 73.3144 7.47715 73.8247 7.09122Z" fill="black"/>
<path d="M84.3493 17.1013C84.3493 15.8711 84.3736 14.255 84.3736 14.255C84.1306 15.051 83.7903 16.4259 83.207 17.4872C82.8425 18.1867 82.2106 18.9827 81.1899 18.9827C80.5337 18.9827 79.756 18.6691 79.1241 18.042C78.4922 17.439 77.9819 16.5465 77.7145 15.3405C77.5687 14.7375 77.4958 14.0862 77.4958 13.3867C77.4958 12.3736 77.6659 11.3364 77.9576 10.3716C78.4193 8.92439 79.2942 7.67011 80.558 7.11534C81.0198 6.92238 81.4815 6.82589 81.9433 6.82589C83.0126 6.82589 84.009 7.33243 84.6652 8.24901L84.7381 7.7666C84.7624 7.52539 85.0055 7.40479 85.3457 7.40479C85.686 7.40479 86.1234 7.52539 86.5123 7.71836C87.0712 7.98368 87.5573 8.44197 87.5573 8.97263C87.5573 9.11735 87.4844 9.84097 87.4358 10.6852C87.3872 11.6741 87.3629 12.856 87.3386 13.845C87.3143 14.8581 87.3143 15.4611 87.2657 16.8118C88.2621 16.1364 89.0884 15.4128 89.5015 14.8098C89.9147 15.0028 90.3036 15.4369 90.3036 16.0158C90.3036 16.3053 90.2063 16.643 89.939 17.0048C89.3557 17.8249 88.2864 18.5485 87.0955 19.1756C86.9011 20.4782 86.5366 21.8048 85.7589 22.7214C85.0541 23.5415 83.8875 23.9756 82.721 24.048C81.7246 24.048 79.9018 24.0239 79.4401 22.6731C79.3915 22.5284 79.3915 22.3837 79.3915 22.2631C79.3915 20.9606 80.9955 20.2128 82.478 19.5374C82.9154 19.3204 83.5716 19.0068 84.3007 18.5967C84.325 18.042 84.3493 17.4872 84.3493 17.1013ZM82.5023 8.92438C81.7975 9.55152 81.3357 10.9746 81.0927 12.4219C80.9712 13.1696 80.8982 13.9415 80.8982 14.5927C80.8982 15.654 81.0684 16.5465 81.5058 16.5465C82.1134 16.5465 82.7939 15.2199 83.3529 13.5555C83.766 12.3254 84.1549 10.9023 84.3979 9.67212C84.1792 9.09323 83.766 8.5867 83.2557 8.5867C83.0126 8.5867 82.7696 8.68318 82.5023 8.92438ZM81.8947 21.853C81.8461 21.9254 81.8461 21.9978 81.8461 22.046C81.8461 22.2148 82.0162 22.3113 82.2835 22.3113C82.4293 22.3113 82.6238 22.2872 82.7939 22.2148C83.1098 22.0942 83.4258 21.8771 83.6445 21.5153C83.766 21.2983 83.8875 21.0088 83.9847 20.6711C83.4987 20.8882 83.0612 21.1053 82.721 21.2741C82.2835 21.4912 81.9676 21.6842 81.8947 21.853Z" fill="black"/>
<path d="M93.4523 7.09122C93.6224 6.97062 93.8169 6.89825 94.0356 6.89825C94.8619 6.89825 95.9555 7.7666 95.9555 8.77966C95.9555 9.5274 95.0563 10.5646 95.0563 10.5646C95.0563 10.5646 95.3966 11.5535 96.393 11.7465C96.4659 11.7706 96.5145 11.7706 96.5874 11.7706C97.3165 11.7706 97.997 11.0711 98.1185 10.3716C98.6289 10.3716 99.0663 10.854 99.0663 11.5777C99.0663 12.9043 97.7297 13.652 96.393 13.652C95.2507 13.652 94.1814 13.1455 93.5009 12.3495C92.9663 12.6148 92.383 13.5797 92.14 15.0269C92.0913 15.2681 92.0913 15.4852 92.0913 15.7264C92.0913 16.7153 92.1156 17.7043 92.2858 18.7415C92.067 18.8862 91.7754 18.9586 91.5081 18.9586C90.7547 18.9586 89.9527 18.4279 89.6124 17.6078C89.2965 16.8359 89.2236 15.1234 89.2236 13.3143C89.2236 10.8058 89.2965 9.4068 89.2965 8.46609C89.2965 7.79072 89.2722 7.35655 89.1993 7.28418C89.3208 7.16358 89.5638 7.09122 89.8555 7.09122C90.1228 7.09122 90.4387 7.16358 90.7547 7.3083C91.265 7.57363 91.7511 8.05604 91.9941 8.92438C92.1157 9.33444 92.1643 10.0339 92.1886 10.854C92.3344 10.5646 92.4559 10.3234 92.6017 10.1063C92.5774 9.88921 92.5531 9.648 92.5531 9.43092C92.5531 8.34549 92.942 7.47715 93.4523 7.09122Z" fill="black"/>
<path d="M107.063 17.1254C107.161 17.1736 107.234 17.1978 107.331 17.1978C107.72 17.1978 108.084 16.8359 108.424 16.3777C108.838 15.8229 109.129 15.1234 109.202 14.7616C109.469 14.7616 110.101 15.0269 110.101 15.8711C110.101 16.0641 110.077 16.2812 110.004 16.5224C109.664 17.7284 108.4 19.055 106.942 19.055C105.873 19.055 104.609 18.3797 104.171 17.2219C103.88 16.4741 103.831 15.847 103.831 15.3405C103.831 14.9787 103.855 14.6651 103.855 14.448C103.539 15.1475 103.029 18.3073 101.231 18.9344C101.085 18.9827 100.915 19.0068 100.745 19.0068C99.5537 19.0068 97.7796 17.8249 97.2692 15.3405C97.172 14.8098 97.0991 14.1827 97.0991 13.5314C97.0991 10.9746 97.974 7.8872 100.113 7.11534C100.574 6.9465 101.061 6.87413 101.522 6.87413C102.567 6.87413 103.564 7.30831 104.244 8.15253L104.293 7.7666C104.293 7.52539 104.487 7.42891 104.755 7.42891C105.071 7.42891 105.557 7.57363 105.97 7.81484C106.577 8.15253 107.112 8.7073 107.112 9.28619C107.112 9.86509 106.893 11.6741 106.772 13.4108C106.723 14.038 106.699 14.641 106.699 15.1957C106.699 16.2088 106.796 16.9807 107.063 17.1254ZM100.988 16.5465C101.595 16.5465 102.227 15.3646 102.81 13.7967C103.272 12.5666 103.685 11.1194 103.953 9.84097C103.734 9.09323 103.296 8.61082 102.786 8.61082C102.519 8.61082 102.203 8.75554 101.887 9.06911C101.328 9.62388 100.915 10.7817 100.672 12.0118C100.502 12.8319 100.429 13.7244 100.429 14.4721C100.429 15.6058 100.599 16.5465 100.988 16.5465Z" fill="black"/>
<path d="M124.935 19.0792C124.765 19.1274 124.595 19.1515 124.401 19.1515C123.21 19.1515 121.849 18.1867 121.484 16.7636C121.314 16.1123 121.241 15.2922 121.241 14.448C121.241 13.2179 121.363 11.9395 121.363 10.9746C121.363 10.1545 121.29 9.47916 120.925 9.47916C120.415 9.47916 119.516 11.7224 118.835 13.9897C118.301 15.7988 117.887 17.6078 117.887 18.3073C117.887 18.4038 117.887 18.5003 117.912 18.5485C117.669 18.7174 117.328 18.7897 116.988 18.7897C116.138 18.7897 115.141 18.3314 115.044 17.4872C115.02 17.3666 115.02 17.2219 115.02 17.0289C115.02 16.3294 115.117 15.1475 115.165 13.9415C115.19 13.1937 115.238 12.3978 115.238 11.6983C115.238 10.4681 115.141 9.50328 114.777 9.50328C114.242 9.50328 113.367 11.7706 112.711 14.0862C112.225 15.7988 111.86 17.5113 111.86 18.3073C111.86 18.4761 111.885 18.5967 111.909 18.6691C111.763 18.7897 111.544 18.838 111.277 18.838C110.402 18.838 109.09 18.2349 108.968 17.1013C108.944 16.9324 108.944 16.6671 108.944 16.3535C108.944 15.5817 108.992 14.448 109.065 13.2661C109.138 12.0601 109.187 10.7334 109.187 9.67212C109.187 8.75554 109.138 8.03192 109.017 7.62187C109.26 7.50127 109.551 7.45303 109.819 7.45303C110.572 7.45303 111.326 7.86308 111.69 8.61082C111.885 9.04499 111.957 9.84097 111.957 10.6369C111.957 11.4329 111.885 12.2289 111.812 13.0249C111.933 12.3978 112.711 8.56258 113.756 7.71836C114.169 7.40479 114.606 7.26006 115.068 7.26006C116.162 7.26006 117.255 8.05604 117.62 9.06911C117.936 9.93745 118.009 11.0229 118.009 11.7465C118.009 12.0842 118.009 12.3495 117.985 12.4701C118.301 11.3123 118.665 10.1304 119.054 9.23795C119.394 8.46609 119.832 7.81484 120.318 7.47715C120.536 7.30831 120.925 7.21182 121.338 7.21182C121.752 7.21182 122.213 7.3083 122.651 7.52539C123.307 7.83896 123.915 8.44197 124.206 9.43092C124.303 9.72037 124.328 10.2028 124.328 10.7817C124.328 11.4088 124.303 12.1807 124.255 12.9284C124.206 13.7726 124.182 14.6168 124.182 15.3405C124.182 16.2812 124.23 16.9807 124.474 17.1254C124.595 17.1978 124.692 17.2219 124.814 17.2219C125.251 17.2219 125.713 16.7153 126.053 16.1123C126.369 15.5576 126.612 14.9545 126.661 14.6892C127.05 14.6892 127.56 15.0993 127.56 15.847C127.56 16.0158 127.536 16.2088 127.463 16.4259C127.123 17.6319 125.932 18.7897 124.935 19.0792Z" fill="black"/>
</svg>
